<svg width="127" height="43" viewBox="0 0 127 43" fill="none" xmlns="http://www.w3.org/2000/svg">
<path d="M47.7305 10.0333C47.0461 10.0333 46.3898 10.3084 45.9058 10.7981C45.4219 11.2877 45.15 11.9518 45.15 12.6443V19.6069C45.1502 20.0711 45.2728 20.5269 45.505 20.9273C45.7372 21.3277 46.0708 21.6581 46.4712 21.8847C46.8717 22.1112 47.3246 22.2256 47.7833 22.2161C48.2421 22.2066 48.69 22.0735 49.0809 21.8306L54.6719 18.3493C55.0473 18.1156 55.3572 17.7885 55.5722 17.3993C55.7872 17.01 55.9 16.5715 55.9 16.1256C55.9 15.6797 55.7872 15.2412 55.5722 14.852C55.3572 14.4627 55.0473 14.1356 54.6719 13.9019L49.0809 10.4206C48.6748 10.1678 48.2074 10.0337 47.7305 10.0333ZM47.7305 19.6069V12.6443L53.3215 16.1256L47.7305 19.6069Z" fill="white"/>
<path d="M60.8516 11.4161C61.4644 11.0623 61.6743 10.2788 61.3205 9.66605C60.9668 9.0533 60.1832 8.84336 59.5705 9.19713C58.9577 9.5509 58.7478 10.3344 59.1016 10.9472C59.4553 11.5599 60.2389 11.7699 60.8516 11.4161Z" fill="white"/>
<path d="M57.0505 6.67995C57.4042 6.0672 57.1943 5.28368 56.5815 4.92991C55.9688 4.57613 55.1853 4.78608 54.8315 5.39883C54.4777 6.01158 54.6877 6.79511 55.3004 7.14888C55.9132 7.50265 56.6967 7.29271 57.0505 6.67995Z" fill="white"/>
<path d="M60.5005 16.125C60.5005 18.2397 59.8734 20.3069 58.6986 22.0653C57.5237 23.8236 55.8538 25.194 53.9001 26.0033C51.9463 26.8126 49.7965 27.0243 47.7224 26.6118C45.6483 26.1992 43.7431 25.1809 42.2478 23.6855C40.7525 22.1902 39.7341 20.285 39.3216 18.2109C38.909 16.1369 39.1208 13.987 39.93 12.0333C40.7393 10.0795 42.1097 8.40963 43.8681 7.23476C45.6264 6.05988 47.6936 5.4328 49.8083 5.4328H51.0914V2.86667H49.8083C47.1861 2.86667 44.6227 3.64426 42.4424 5.1011C40.2621 6.55794 38.5627 8.62861 37.5592 11.0513C36.5557 13.4739 36.2932 16.1397 36.8047 18.7116C37.3163 21.2834 38.5791 23.6458 40.4333 25.5001C42.2875 27.3543 44.6499 28.617 47.2218 29.1286C49.7936 29.6401 52.4594 29.3776 54.8821 28.3741C57.3047 27.3706 59.3754 25.6713 60.8322 23.4909C62.2891 21.3106 63.0667 18.7472 63.0667 16.125V14.8419H60.5005V16.125Z" fill="white"/>
<path d="M6.07629 28.9223V17.5378H17.8868V12.7475H6.07629V4.99076H19.0136V0H0V28.9223H6.07629Z" fill="white"/>
<path d="M26.3735 28.9223H32.2486V0H26.3735V28.9223Z" fill="white"/>
<path d="M69.644 2.48536V7.43603H66.6058V11.8455H69.644V23.1299C69.644 27.3189 71.6157 29.0025 76.686 29.0025C77.8731 29.0025 78.8791 28.9023 79.4827 28.762V24.4527C79.1205 24.5128 78.5773 24.5529 78.0542 24.5529C76.3238 24.5529 75.519 23.7712 75.519 22.1277V11.8455H79.5028V7.43603H75.519V2.48536H69.644Z" fill="white"/>
<path d="M96.1985 11.3044C98.8142 11.3044 100.605 13.1884 100.726 15.9343H91.5709C91.7721 13.2486 93.6232 11.3044 96.1985 11.3044ZM100.806 22.3482C100.263 23.9917 98.613 25.054 96.4601 25.054C93.4622 25.054 91.5105 22.9495 91.5105 19.8829V19.5221H106.379V17.7382C106.379 11.2041 102.416 6.97504 96.1382 6.97504C89.7601 6.97504 85.7361 11.4246 85.7361 18.2794C85.7361 25.1542 89.7198 29.3833 96.3595 29.3833C101.691 29.3833 105.554 26.5572 106.198 22.3482H100.806Z" fill="white"/>
<path d="M113.538 28.9223H119.413V16.9165C119.413 13.8899 121.103 12.1261 124.001 12.1261C124.846 12.1261 125.65 12.2664 126.133 12.4669V7.31577C125.731 7.19551 125.147 7.09529 124.463 7.09529C121.928 7.09529 120.097 8.57849 119.333 11.3044H119.212V7.43603H113.538V28.9223Z" fill="white"/>
<path d="M80.8679 35.436H82.5993C83.6098 35.436 84.2431 35.9894 84.2431 36.8504C84.2431 37.7298 83.6435 38.2648 82.6195 38.2648H80.8679V35.436ZM80.8679 39.6116H82.4982L84.3104 42.8586H86.6145L84.5665 39.3348C85.6848 38.9351 86.3315 37.9512 86.3315 36.8135C86.3315 35.0608 85.0515 33.9847 82.8148 33.9847H78.8333V42.8586H80.8679V39.6116Z" fill="white"/>
<path d="M91.6322 41.6655C90.9652 41.6655 90.5206 41.3581 90.5206 40.8661C90.5206 40.3987 90.9383 40.0974 91.6726 40.0482L93.1951 39.9621V40.4418C93.1951 41.1551 92.4878 41.6655 91.6322 41.6655ZM90.9854 42.9631C91.8882 42.9631 92.7842 42.5511 93.1884 41.85H93.2288V42.8586H95.1286V38.3263C95.1286 36.998 93.9227 36.1247 92.0701 36.1247C90.1568 36.1247 88.9643 37.0041 88.8902 38.2832H90.689C90.7833 37.7974 91.2482 37.4653 91.9825 37.4653C92.7235 37.4653 93.1951 37.822 93.1951 38.437V38.8736L91.3762 38.972C89.5774 39.0704 88.5669 39.7653 88.5669 40.9645C88.5669 42.1514 89.6111 42.9631 90.9854 42.9631Z" fill="white"/>
<path d="M100.463 42.9631C101.527 42.9631 102.363 42.4527 102.713 41.727H102.747V42.8586H104.687V33.9847H102.72V37.3977H102.679C102.329 36.6659 101.521 36.1616 100.476 36.1616C98.6642 36.1616 97.5189 37.4592 97.5189 39.5501C97.5189 41.6594 98.6574 42.9631 100.463 42.9631ZM101.13 37.6006C102.107 37.6006 102.733 38.3632 102.733 39.5624C102.733 40.7677 102.107 41.5179 101.13 41.5179C100.14 41.5179 99.5333 40.7738 99.5333 39.5624C99.5333 38.357 100.14 37.6006 101.13 37.6006Z" fill="white"/>
<path d="M107.414 42.8586H109.381V36.2662H107.414V42.8586ZM108.398 35.5405C108.991 35.5405 109.449 35.1285 109.449 34.6119C109.449 34.0892 108.991 33.6833 108.398 33.6833C107.805 33.6833 107.347 34.0892 107.347 34.6119C107.347 35.1285 107.805 35.5405 108.398 35.5405Z" fill="white"/>
<path d="M115.389 43C117.572 43 118.967 41.727 118.967 39.5562C118.967 37.4161 117.552 36.1247 115.389 36.1247C113.227 36.1247 111.812 37.4223 111.812 39.5562C111.812 41.7209 113.207 43 115.389 43ZM115.389 41.6286C114.419 41.6286 113.806 40.8845 113.806 39.5624C113.806 38.2525 114.433 37.4961 115.389 37.4961C116.346 37.4961 116.966 38.2525 116.966 39.5624C116.966 40.8845 116.353 41.6286 115.389 41.6286Z" fill="white"/>
</svg>
