<svg width="58" height="58" viewBox="0 0 58 58" fill="none" xmlns="http://www.w3.org/2000/svg">
<path d="M24.521 16C23.0567 16 21.6524 16.6096 20.6171 17.6948C19.5817 18.7799 19 20.2517 19 21.7863V37.2164C19.0005 38.2452 19.2626 39.2553 19.7595 40.1425C20.2564 41.0298 20.97 41.7622 21.8268 42.2643C22.6836 42.7663 23.6527 43.0199 24.6341 42.9988C25.6155 42.9777 26.5738 42.6828 27.4103 42.1444L39.3725 34.4293C40.1755 33.9114 40.8386 33.1866 41.2986 32.3239C41.7585 31.4613 42 30.4895 42 29.5013C42 28.5131 41.7585 27.5414 41.2986 26.6787C40.8386 25.8161 40.1755 25.0913 39.3725 24.5733L27.4103 16.8583C26.5414 16.2979 25.5413 16.0008 24.521 16ZM24.521 37.2164V21.7863L36.4831 29.5013L24.521 37.2164Z" fill="#FF296D"/>
<path d="M53.1895 18.8238C54.5386 18.0449 55.0008 16.3198 54.2219 14.9706C53.443 13.6215 51.7179 13.1592 50.3687 13.9382C49.0196 14.7171 48.5573 16.4422 49.3363 17.7913C50.1152 19.1405 51.8403 19.6027 53.1895 18.8238Z" fill="#FF296D"/>
<path d="M44.8203 8.39594C45.5992 7.04681 45.137 5.32168 43.7878 4.54275C42.4387 3.76383 40.7136 4.22608 39.9347 5.57521C39.1557 6.92435 39.618 8.64948 40.9671 9.4284C42.3162 10.2073 44.0414 9.74508 44.8203 8.39594Z" fill="#FF296D"/>
<path d="M52.3871 29C52.3871 33.6255 51.0155 38.1472 48.4457 41.9932C45.8759 45.8391 42.2233 48.8367 37.9499 50.6068C33.6764 52.377 28.9741 52.8401 24.4374 51.9377C19.9008 51.0353 15.7336 48.8079 12.4628 45.5372C9.19209 42.2664 6.96469 38.0992 6.06229 33.5626C5.1599 29.0259 5.62304 24.3236 7.39315 20.0501C9.16327 15.7767 12.1608 12.1241 16.0068 9.55434C19.8528 6.98453 24.3745 5.6129 29 5.6129H31.8065V0H29C23.2644 0 17.6575 1.70082 12.8885 4.88738C8.11945 8.07394 4.40245 12.6031 2.20751 17.9022C0.0125652 23.2012 -0.561731 29.0322 0.55724 34.6576C1.67621 40.2831 4.43819 45.4504 8.49391 49.5061C12.5496 53.5618 17.7169 56.3238 23.3424 57.4428C28.9678 58.5617 34.7988 57.9874 40.0978 55.7925C45.3969 53.5976 49.9261 49.8806 53.1126 45.1115C56.2992 40.3425 58 34.7356 58 29V26.1935H52.3871V29Z" fill="#FF296D"/>
</svg>
